<svg width="62" height="73" viewBox="0 0 62 73" fill="none" xmlns="http://www.w3.org/2000/svg">
<path d="M5.53178 70.1313C3.77726 65.0552 -2.00755 52.3411 2.98654 54.2084C5.71101 55.2271 7.30888 58.2906 9.64531 59.8794C12.2445 61.6469 13.6576 54.6751 13.9388 53.5985C18.2096 37.2483 15.8871 19.4041 22.1659 3.53282C22.5098 2.66329 23.0566 0.410141 23.6313 1.14504C24.1082 1.75492 23.8071 4.34545 23.8113 4.88244C23.8867 14.5021 24.227 24.1292 25.0196 33.7176C25.5509 40.1446 25.7399 47.3503 27.9248 53.4947C29.5118 57.9577 32.0546 52.4192 32.8353 50.5099C34.9074 45.4429 36.3383 40.1162 38.1829 34.9634C38.2997 34.6372 38.7469 32.9558 38.8256 34.3664C38.9298 36.2322 38.84 38.1335 38.7999 39.9985C38.6678 46.1504 38.3718 52.2969 38.3886 58.4519C38.3919 59.6672 38.0908 61.9092 38.7356 63.0718C39.3068 64.1014 40.8906 62.4898 41.2423 62.1893C45.6479 58.4245 49.4235 53.9654 54.02 50.4061C54.1892 50.2751 61.5954 45.3226 60.9615 47.9924C60.51 49.8941 58.6718 52.1022 57.6707 53.6114C55.7196 56.553 53.6704 59.4295 51.7575 62.3969C49.7384 65.5292 48.083 68.3068 47.644 72" stroke="#191715" stroke-width="2" stroke-linecap="round"/>
</svg>
